<mxfile host="65bd71144e">
    <diagram id="6kIDdSxXV485Jl07DK02" name="Страница 1">
        <mxGraphModel dx="791" dy="472" grid="1" gridSize="10" guides="1" tooltips="1" connect="1" arrows="1" fold="1" page="1" pageScale="1" pageWidth="827" pageHeight="1169" math="0" shadow="0">
            <root>
                <mxCell id="0"/>
                <mxCell id="1" parent="0"/>
                <mxCell id="2" value="«interface»&#10;IAbstractFactory" style="swimlane;fontStyle=1;align=center;verticalAlign=top;childLayout=stackLayout;horizontal=1;startSize=40;horizontalStack=0;resizeParent=1;resizeParentMax=0;resizeLast=0;collapsible=1;marginBottom=0;" parent="1" vertex="1">
                    <mxGeometry x="350" y="230" width="210" height="90" as="geometry"/>
                </mxCell>
                <mxCell id="3" value="+ createBysicle(): IBysicle&#10;+ createSportBysicle(): ISportBysicle" style="text;strokeColor=none;align=left;verticalAlign=top;spacingLeft=4;spacingRight=4;overflow=hidden;rotatable=0;points=[[0,0.5],[1,0.5]];portConstraint=eastwest;fillColor=#2a2a2a;" parent="2" vertex="1">
                    <mxGeometry y="40" width="210" height="50" as="geometry"/>
                </mxCell>
                <mxCell id="4" value="FactoryOldBysicle" style="swimlane;fontStyle=1;align=center;verticalAlign=top;childLayout=stackLayout;horizontal=1;startSize=26;horizontalStack=0;resizeParent=1;resizeParentMax=0;resizeLast=0;collapsible=1;marginBottom=0;" parent="1" vertex="1">
                    <mxGeometry x="350" y="80" width="210" height="70" as="geometry"/>
                </mxCell>
                <mxCell id="5" value="+ createBysicle(): IBysicle&#10;+ createSportBysicle(): ISportBysicle" style="text;strokeColor=none;fillColor=none;align=left;verticalAlign=top;spacingLeft=4;spacingRight=4;overflow=hidden;rotatable=0;points=[[0,0.5],[1,0.5]];portConstraint=eastwest;" parent="4" vertex="1">
                    <mxGeometry y="26" width="210" height="44" as="geometry"/>
                </mxCell>
                <mxCell id="8" value="FactoryNewBysicle" style="swimlane;fontStyle=1;align=center;verticalAlign=top;childLayout=stackLayout;horizontal=1;startSize=26;horizontalStack=0;resizeParent=1;resizeParentMax=0;resizeLast=0;collapsible=1;marginBottom=0;" parent="1" vertex="1">
                    <mxGeometry x="350" y="400" width="210" height="70" as="geometry"/>
                </mxCell>
                <mxCell id="9" value="+ createBysicle(): IBysicle&#10;+ createSportBysicle(): ISportBysicle" style="text;strokeColor=none;fillColor=none;align=left;verticalAlign=top;spacingLeft=4;spacingRight=4;overflow=hidden;rotatable=0;points=[[0,0.5],[1,0.5]];portConstraint=eastwest;" parent="8" vertex="1">
                    <mxGeometry y="26" width="210" height="44" as="geometry"/>
                </mxCell>
                <mxCell id="10" value="" style="endArrow=block;dashed=1;endFill=1;endSize=12;html=1;exitX=0.5;exitY=0;exitDx=0;exitDy=0;entryX=0.5;entryY=1;entryDx=0;entryDy=0;" parent="1" source="8" target="2" edge="1">
                    <mxGeometry width="160" relative="1" as="geometry">
                        <mxPoint x="270" y="280" as="sourcePoint"/>
                        <mxPoint x="430" y="280" as="targetPoint"/>
                    </mxGeometry>
                </mxCell>
                <mxCell id="12" value="" style="endArrow=block;dashed=1;endFill=1;endSize=12;html=1;exitX=0.5;exitY=1;exitDx=0;exitDy=0;entryX=0.5;entryY=0;entryDx=0;entryDy=0;exitPerimeter=0;" parent="1" source="5" target="2" edge="1">
                    <mxGeometry width="160" relative="1" as="geometry">
                        <mxPoint x="400" y="230" as="sourcePoint"/>
                        <mxPoint x="400" y="150" as="targetPoint"/>
                    </mxGeometry>
                </mxCell>
                <mxCell id="13" value="" style="group" parent="1" vertex="1" connectable="0">
                    <mxGeometry x="30" y="250" width="110" height="60" as="geometry"/>
                </mxCell>
                <mxCell id="14" value="«interface»&lt;br&gt;&lt;b&gt;IBysicle&lt;/b&gt;" style="html=1;" parent="13" vertex="1">
                    <mxGeometry width="110" height="27.272727272727277" as="geometry"/>
                </mxCell>
                <mxCell id="15" value="+addModification()" style="rounded=0;whiteSpace=wrap;html=1;align=left;" parent="13" vertex="1">
                    <mxGeometry y="27.272727272727277" width="110" height="32.72727272727273" as="geometry"/>
                </mxCell>
                <mxCell id="16" value="" style="group" parent="1" vertex="1" connectable="0">
                    <mxGeometry x="180" y="250" width="110" height="60" as="geometry"/>
                </mxCell>
                <mxCell id="17" value="«interface»&lt;br&gt;&lt;b&gt;ISportBysicle&lt;/b&gt;" style="html=1;" parent="16" vertex="1">
                    <mxGeometry width="110" height="27.272727272727277" as="geometry"/>
                </mxCell>
                <mxCell id="18" value="+addModification()" style="rounded=0;whiteSpace=wrap;html=1;align=left;" parent="16" vertex="1">
                    <mxGeometry y="27.272727272727277" width="110" height="32.72727272727273" as="geometry"/>
                </mxCell>
                <mxCell id="21" value="NewBysicle" style="html=1;" parent="1" vertex="1">
                    <mxGeometry x="30" y="350" width="110" height="30" as="geometry"/>
                </mxCell>
                <mxCell id="22" value="NewSportBysicle" style="html=1;" parent="1" vertex="1">
                    <mxGeometry x="180" y="350" width="110" height="30" as="geometry"/>
                </mxCell>
                <mxCell id="23" value="" style="endArrow=open;dashed=1;endFill=0;endSize=12;html=1;exitX=-0.019;exitY=0.091;exitDx=0;exitDy=0;exitPerimeter=0;entryX=0.5;entryY=0;entryDx=0;entryDy=0;rounded=0;" parent="1" source="5" target="19" edge="1">
                    <mxGeometry width="160" relative="1" as="geometry">
                        <mxPoint x="330" y="90" as="sourcePoint"/>
                        <mxPoint x="70" y="110" as="targetPoint"/>
                        <Array as="points">
                            <mxPoint x="85" y="110"/>
                        </Array>
                    </mxGeometry>
                </mxCell>
                <mxCell id="24" value="" style="endArrow=open;dashed=1;endFill=0;endSize=12;html=1;entryX=0.5;entryY=0;entryDx=0;entryDy=0;rounded=0;" parent="1" target="20" edge="1">
                    <mxGeometry width="160" relative="1" as="geometry">
                        <mxPoint x="235" y="110" as="sourcePoint"/>
                        <mxPoint x="430" y="280" as="targetPoint"/>
                    </mxGeometry>
                </mxCell>
                <mxCell id="25" value="" style="endArrow=open;dashed=1;endFill=0;endSize=12;html=1;exitX=-0.014;exitY=0.318;exitDx=0;exitDy=0;exitPerimeter=0;entryX=0.5;entryY=1;entryDx=0;entryDy=0;rounded=0;" parent="1" source="9" target="35" edge="1">
                    <mxGeometry width="160" relative="1" as="geometry">
                        <mxPoint x="351.01" y="430.004" as="sourcePoint"/>
                        <mxPoint x="90" y="470" as="targetPoint"/>
                        <Array as="points">
                            <mxPoint x="85" y="440"/>
                        </Array>
                    </mxGeometry>
                </mxCell>
                <mxCell id="26" value="" style="endArrow=open;dashed=1;endFill=0;endSize=12;html=1;rounded=0;entryX=0.5;entryY=1;entryDx=0;entryDy=0;startArrow=none;" parent="1" target="36" edge="1">
                    <mxGeometry width="160" relative="1" as="geometry">
                        <mxPoint x="235" y="440" as="sourcePoint"/>
                        <mxPoint x="260" y="430" as="targetPoint"/>
                    </mxGeometry>
                </mxCell>
                <mxCell id="27" value="" style="endArrow=block;dashed=1;endFill=1;endSize=12;html=1;entryX=0.5;entryY=1;entryDx=0;entryDy=0;exitX=0.5;exitY=0;exitDx=0;exitDy=0;" parent="1" source="21" target="15" edge="1">
                    <mxGeometry width="160" relative="1" as="geometry">
                        <mxPoint x="85" y="350" as="sourcePoint"/>
                        <mxPoint x="84.5" y="310" as="targetPoint"/>
                    </mxGeometry>
                </mxCell>
                <mxCell id="28" value="" style="endArrow=block;dashed=1;endFill=1;endSize=12;html=1;entryX=0.5;entryY=1;entryDx=0;entryDy=0;exitX=0.5;exitY=0;exitDx=0;exitDy=0;" parent="1" edge="1">
                    <mxGeometry width="160" relative="1" as="geometry">
                        <mxPoint x="234.5" y="350" as="sourcePoint"/>
                        <mxPoint x="234.5" y="310" as="targetPoint"/>
                    </mxGeometry>
                </mxCell>
                <mxCell id="29" value="" style="endArrow=block;dashed=1;endFill=1;endSize=12;html=1;entryX=0.5;entryY=0;entryDx=0;entryDy=0;exitX=0.5;exitY=1;exitDx=0;exitDy=0;" parent="1" source="31" target="14" edge="1">
                    <mxGeometry width="160" relative="1" as="geometry">
                        <mxPoint x="105" y="370" as="sourcePoint"/>
                        <mxPoint x="105" y="330" as="targetPoint"/>
                    </mxGeometry>
                </mxCell>
                <mxCell id="30" value="" style="endArrow=block;dashed=1;endFill=1;endSize=12;html=1;entryX=0.5;entryY=0;entryDx=0;entryDy=0;exitX=0.5;exitY=1;exitDx=0;exitDy=0;" parent="1" source="32" edge="1">
                    <mxGeometry width="160" relative="1" as="geometry">
                        <mxPoint x="234.5" y="200" as="sourcePoint"/>
                        <mxPoint x="234.5" y="250" as="targetPoint"/>
                    </mxGeometry>
                </mxCell>
                <mxCell id="33" value="" style="group" parent="1" vertex="1" connectable="0">
                    <mxGeometry x="30" y="150" width="110" height="62.72999999999996" as="geometry"/>
                </mxCell>
                <mxCell id="19" value="OldBysicle" style="html=1;" parent="33" vertex="1">
                    <mxGeometry width="110" height="30" as="geometry"/>
                </mxCell>
                <mxCell id="31" value="+addModification()" style="rounded=0;whiteSpace=wrap;html=1;align=left;" parent="33" vertex="1">
                    <mxGeometry y="30.002727272727242" width="110" height="32.72727272727273" as="geometry"/>
                </mxCell>
                <mxCell id="34" value="" style="group" parent="1" vertex="1" connectable="0">
                    <mxGeometry x="180" y="150" width="110" height="62.72999999999999" as="geometry"/>
                </mxCell>
                <mxCell id="20" value="OldSportBysicle" style="html=1;" parent="34" vertex="1">
                    <mxGeometry width="110" height="30" as="geometry"/>
                </mxCell>
                <mxCell id="32" value="+addModification()" style="rounded=0;whiteSpace=wrap;html=1;align=left;" parent="34" vertex="1">
                    <mxGeometry y="30.00272727272727" width="110" height="32.72727272727273" as="geometry"/>
                </mxCell>
                <mxCell id="35" value="+addModification()" style="rounded=0;whiteSpace=wrap;html=1;align=left;" parent="1" vertex="1">
                    <mxGeometry x="30" y="380.00272727272727" width="110" height="32.72727272727273" as="geometry"/>
                </mxCell>
                <mxCell id="36" value="+addModification()" style="rounded=0;whiteSpace=wrap;html=1;align=left;" parent="1" vertex="1">
                    <mxGeometry x="180" y="380.00272727272727" width="110" height="32.72727272727273" as="geometry"/>
                </mxCell>
            </root>
        </mxGraphModel>
    </diagram>
</mxfile>